<?xml version="1.0" encoding="utf-8"?>
<!-- Generator: Adobe Illustrator 26.0.3, SVG Export Plug-In . SVG Version: 6.00 Build 0)  -->
<svg version="1.1" id="Layer_1" xmlns="http://www.w3.org/2000/svg" xmlns:xlink="http://www.w3.org/1999/xlink" x="0px" y="0px"
	 viewBox="0 0 473 269" style="enable-background:new 0 0 473 269;" xml:space="preserve">
<style type="text/css">
	.st0{enable-background:new    ;}
	.st1{fill:#F18C31;}
	.st2{fill:#7885C2;}
	.st3{fill:#F6F7FA;}
</style>
<g id="Group_126" transform="translate(-188 -81)">
	<g class="st0">
		<path class="st1" d="M197.2,140.1L197.2,140.1c0-26.5,15.2-41.9,39.4-41.9c21.2,0,35.8,13.6,36.6,31.7v0.6h-19.8l-0.1-0.8
			c-1.3-8.4-7.2-14.4-16.6-14.4c-11.3,0-18.4,9.3-18.4,24.8v0.1c0,15.7,7.2,25,18.5,25c8.9,0,15.3-5.6,16.7-14.6l0.1-0.6h19.8
			l-0.1,0.6c-0.7,18.1-15.6,31.7-36.6,31.7C212.3,182.1,197.2,166.6,197.2,140.1z"/>
		<path class="st1" d="M280.7,140.2v-0.1c0-25.8,15.5-41.9,40-41.9c24.7,0,40,16.1,40,41.9v0.1c0,25.8-15.3,41.9-40,41.9
			C296,182.1,280.7,166,280.7,140.2z M339.7,140.2v-0.1c0-15.3-7.5-24.8-19.1-24.8c-11.5,0-19,9.4-19,24.8v0.1
			c0,15.4,7.4,24.9,19,24.9C332.4,165,339.7,155.4,339.7,140.2z"/>
		<path class="st1" d="M368.1,157.7l-0.1-1h19.1l0.1,0.6c1,5.2,7.1,8.6,15,8.6c8.2,0,13.3-3.5,13.3-8.5v-0.1c0-4.6-3.6-6.7-13.1-8.6
			l-8.3-1.6c-16.1-3-24.5-10.9-24.5-23.3v-0.1c0-15.6,13.5-25.7,32.1-25.7c20.3,0,31.8,9.5,32.6,24.3l0.1,1.2h-19.1l-0.1-0.6
			c-0.6-5.3-5.8-8.6-13.3-8.6c-7.6,0-11.8,3.4-11.8,8.1v0.1c0,4.4,3.8,6.7,12.5,8.3l8.3,1.6c17.2,3.3,25.2,10.3,25.2,23.2v0.1
			c0,16.2-12.7,26.4-34.1,26.4C381.8,182.1,369,173.2,368.1,157.7z"/>
		<path class="st1" d="M445.6,99.6h23.8l20.3,53h0.3l20.3-53h23.8v81h-18.1V130h-0.4l-19.8,50.6H484L464.2,130h-0.4v50.6h-18.1V99.6
			z"/>
		<path class="st1" d="M545,103.1c0-5.3,4.4-9.8,10.2-9.8c5.8,0,10.2,4.4,10.2,9.8c0,5.3-4.4,9.8-10.2,9.8
			C549.5,112.9,545,108.4,545,103.1z M545.2,119.5h19.9v61.2h-19.9V119.5z"/>
		<path class="st1" d="M573.9,140.1L573.9,140.1c0-26.5,15.2-41.9,39.4-41.9c21.2,0,35.8,13.6,36.6,31.7v0.6h-19.8l-0.1-0.8
			c-1.3-8.4-7.2-14.4-16.6-14.4c-11.3,0-18.4,9.3-18.4,24.8v0.1c0,15.7,7.2,25,18.5,25c8.9,0,15.3-5.6,16.7-14.6l0.1-0.6H650
			l-0.1,0.6c-0.7,18.1-15.6,31.7-36.6,31.7C589,182.1,573.9,166.6,573.9,140.1z"/>
	</g>
	<g class="st0">
		<path class="st2" d="M198.4,199.6H219v64.5h33.5v16.6h-54.1V199.6z"/>
		<path class="st2" d="M256.4,240.2v-0.1c0-25.8,15.5-41.9,40-41.9c24.7,0,40,16.1,40,41.9v0.1c0,25.8-15.3,41.9-40,41.9
			C271.7,282.1,256.4,266,256.4,240.2z M315.4,240.2v-0.1c0-15.3-7.5-24.8-19.1-24.8c-11.5,0-19,9.4-19,24.8v0.1
			c0,15.4,7.4,24.9,19,24.9C308.1,265,315.4,255.4,315.4,240.2z"/>
		<path class="st2" d="M346.4,251.9v-52.3H367v50.3c0,9.4,5.1,15.1,14.3,15.1c9.2,0,14.3-5.7,14.3-15.1v-50.3h20.6v52.3
			c0,18.2-13.6,30.2-34.9,30.2C360.2,282.1,346.4,270.2,346.4,251.9z"/>
		<path class="st2" d="M428.5,199.6h17.5l32.4,46.8h0.4v-46.8h20.6v81H482l-32.6-47.3H449v47.3h-20.6V199.6z"/>
		<path class="st2" d="M509.3,240L509.3,240c0-26.3,15.1-41.8,39.5-41.8c19.9,0,34.2,11.7,36.3,27.4l0.1,0.7h-20.4l-0.2-0.6
			c-2.1-6.6-7.9-10.4-15.8-10.4c-11.7,0-18.6,8.8-18.6,24.5v0.1c0,16.1,7.6,25.3,19.5,25.3c9.3,0,15.7-5.1,16.4-13.2l0.1-1H550
			v-14.6h36.1v10.2c0,22.2-13.7,35.7-36.8,35.7C524.3,282.1,509.3,266.7,509.3,240z"/>
		<path class="st2" d="M596.3,199.6h55.5v16.6h-34.9v16h32.8v15.5h-32.8v16.4h34.9v16.6h-55.5V199.6z"/>
	</g>
	<g class="st0">
		<path class="st3" d="M233.8,337.3l0.5-2.7c0.5,0.2,1.2,0.3,2,0.3c1.9,0,3.6-1.1,5.3-4.4l1-1.9l-4.2-25.4h3.2l3.4,21.9h0.1
			l12.1-21.9h3.6l-16.2,28.3c-2.8,4.8-5.1,6.1-8.3,6.1C235.3,337.7,234.3,337.5,233.8,337.3z"/>
		<path class="st3" d="M283,313.8c0,8.6-5.6,15.2-13,15.2c-6.4,0-10.5-4.3-10.5-11c0-8.6,5.6-15.2,13-15.2
			C278.9,302.8,283,307.2,283,313.8z M279.7,313.9c0-5-2.8-8.2-7.2-8.2c-5.6,0-9.8,5.3-9.8,12.3c0,5,2.8,8.2,7.2,8.2
			C275.6,326.2,279.7,320.9,279.7,313.9z"/>
		<path class="st3" d="M305.3,328.7h-3.1l0.9-4.2H303c-1.5,2.4-4.8,4.6-8.8,4.6c-4.9,0-8-3.2-8-7.3c0-0.9,0.1-2.2,0.3-3.2l3.2-15.3
			h3.3l-3.1,14.8c-0.2,0.9-0.3,2.1-0.3,2.8c0,3.5,2.1,5.3,5.8,5.3c4.4,0,7.8-3.2,8.7-7.5l3.3-15.4h3.2L305.3,328.7z"/>
		<path class="st3" d="M316.2,303.3h3.1l-0.8,3.8h0.1c1.7-2.7,4.1-4.2,7.2-4.2c1.2,0,2.5,0.3,3.1,0.6l-0.7,3.1
			c-0.6-0.3-2-0.6-3.2-0.6c-4.1,0-6.7,2.9-7.7,7.7l-3.2,15h-3.2L316.2,303.3z"/>
		<path class="st3" d="M351.4,302.8c5.3,0,9,3.1,9.2,7.6h-3.1c-0.3-2.9-2.7-4.9-6.1-4.9c-3.6,0-5.9,1.8-5.9,4.3c0,2,1.2,3.1,4.6,4.2
			l2.2,0.7c4.6,1.5,6.4,3.4,6.4,6.7c0,4.4-4,7.6-9.6,7.6c-5.8,0-9.8-3.3-10.1-7.8h3.2c0.4,3,3.1,5.1,7,5.1c3.6,0,6.2-2.1,6.2-4.7
			c0-2-1.1-2.9-4.7-4.1l-2.2-0.7c-4.4-1.4-6.3-3.4-6.3-6.7C342.3,305.9,346,302.8,351.4,302.8z"/>
		<path class="st3" d="M363.1,318.2c0-8.6,5.3-15.4,12.7-15.4c6.1,0,9.9,4,9.9,10.4c0,1.1-0.1,2.4-0.3,3.4h-19
			c-0.1,0.6-0.1,1.1-0.1,1.5c0,5,2.7,8.1,7,8.1c3.8,0,6.6-2,7.9-5.2h3.2c-1.4,4.7-5.7,8-11.1,8C366.7,329.1,363.1,324.6,363.1,318.2
			z M382.4,314c0-0.4,0.1-0.7,0.1-1.2c0-3.9-2.2-7.2-6.7-7.2s-7.8,3.6-8.9,8.3H382.4z"/>
		<path class="st3" d="M411.6,311.4v0.1h-3.1c-0.2-3.3-2.8-5.8-6.8-5.8c-5.6,0-9.6,5.2-9.6,12.3c0,5,2.8,8.2,7,8.2
			c3.6,0,6.4-2,7.6-5.1h3.2c-1.4,4.7-5.7,8-10.9,8c-6.6,0-10.3-4.5-10.3-10.9c0-8.6,5.4-15.3,13-15.3
			C407.9,302.8,411.4,306.8,411.6,311.4z"/>
		<path class="st3" d="M437.2,313.8c0,8.6-5.6,15.2-13,15.2c-6.4,0-10.5-4.3-10.5-11c0-8.6,5.6-15.2,13-15.2
			C433.1,302.8,437.2,307.2,437.2,313.8z M433.9,313.9c0-5-2.8-8.2-7.2-8.2c-5.6,0-9.8,5.3-9.8,12.3c0,5,2.8,8.2,7.2,8.2
			C429.7,326.2,433.9,320.9,433.9,313.9z"/>
		<path class="st3" d="M444.2,303.3h3.1l-1,4.4h0.1c1.8-2.9,4.8-4.9,8.7-4.9c4.7,0,8.2,3.2,8.2,7.5c0,0.9-0.1,1.9-0.3,2.9l-3.3,15.4
			h-3.2l3.2-14.8c0.2-1,0.3-1.9,0.3-2.6c0-3.4-2.4-5.5-6.1-5.5c-4.2,0-7.6,3.1-8.5,7.5l-3.3,15.4h-3.2L444.2,303.3z"/>
		<path class="st3" d="M466.4,318.4c0-8.8,5.7-15.6,12.9-15.6c4.3,0,7.8,2.8,8.4,6.5h0.1l3.4-15.9h3.2l-7.5,35.2h-3.2l1-4.8h-0.1
			c-1.7,3-5.2,5.2-8.9,5.2C470.1,329.1,466.4,324.8,466.4,318.4z M486.4,313.5c0-4.6-2.8-7.8-7.1-7.8c-5.3,0-9.7,5.4-9.7,12.5
			c0,4.9,2.6,8,6.9,8C482.3,326.2,486.4,320.6,486.4,313.5z"/>
		<path class="st3" d="M511.8,293.4h3.2l-3,14.2h0.1c1.6-2.7,4.6-4.8,8.6-4.8c5,0,8.3,3.5,8.3,7.7c0,0.8-0.1,1.8-0.3,2.8l-3.4,15.4
			h-3.2l3.2-14.8c0.2-0.9,0.3-1.8,0.3-2.5c0-3.4-2.3-5.7-6.2-5.7c-4.3,0-7.7,3.2-8.6,7.5l-3.3,15.4h-3.3L511.8,293.4z"/>
		<path class="st3" d="M555.8,313.8c0,8.6-5.6,15.2-13,15.2c-6.4,0-10.5-4.3-10.5-11c0-8.6,5.6-15.2,13-15.2
			C551.7,302.8,555.8,307.2,555.8,313.8z M552.5,313.9c0-5-2.8-8.2-7.2-8.2c-5.6,0-9.8,5.3-9.8,12.3c0,5,2.8,8.2,7.2,8.2
			C548.4,326.2,552.5,320.9,552.5,313.9z"/>
		<path class="st3" d="M562.8,303.3h3.1l-1,4.4h0.1c1.4-2.8,4.2-4.8,7.5-4.8c3.8,0,6.4,2.4,6.9,5.2h0.1c1.5-2.8,4.4-5.2,8.5-5.2
			c4.2,0,7.2,2.9,7.2,7c0,1-0.1,2-0.3,3l-3.4,15.9h-3.2l3.3-15.3c0.2-0.9,0.3-1.9,0.3-2.6c0-2.8-1.9-5-5.1-5c-3.4,0-6.4,2.7-7.3,7.1
			l-3.4,15.8h-3.2l3.2-15.3c0.2-0.9,0.3-1.9,0.3-2.6c0-2.8-1.9-5-5.1-5c-3.3,0-6.4,2.8-7.3,7l-3.4,15.9h-3.2L562.8,303.3z"/>
		<path class="st3" d="M598.3,318.2c0-8.6,5.3-15.4,12.7-15.4c6.1,0,9.9,4,9.9,10.4c0,1.1-0.1,2.4-0.3,3.4h-19
			c-0.1,0.6-0.1,1.1-0.1,1.5c0,5,2.7,8.1,7,8.1c3.8,0,6.6-2,7.9-5.2h3.2c-1.4,4.7-5.7,8-11.1,8C602,329.1,598.3,324.6,598.3,318.2z
			 M617.7,314c0-0.4,0.1-0.7,0.1-1.2c0-3.9-2.2-7.2-6.7-7.2s-7.8,3.6-8.9,8.3H617.7z"/>
	</g>
</g>
</svg>
