<svg xmlns="http://www.w3.org/2000/svg" viewBox="0 0 766.97 324.77"><defs><style>.cls-1{fill:#f08c2f;}.cls-2{fill:#b2b8dd;}.cls-3,.cls-6{fill:#2d2f75;}.cls-3{opacity:0.8;}.cls-4{fill:#f6f7fa;}.cls-5{isolation:isolate;}</style></defs><g id="Layer_2" data-name="Layer 2"><g id="Layer_1-2" data-name="Layer 1"><g id="Group_55" data-name="Group 55"><path id="Path_1" data-name="Path 1" class="cls-1" d="M4.23,86c-1.65,4.19-20.3,52.67,36.56,90.79,65.62,43.12,150.29,93.11,172.48,34.37-11.88,12.19-20.33,14.24-37.5,11.76C158,221.07,161.63,234.2,143,225.05s-33.12-15.74-44-24.52c-28.65-20.74-1.75-33-44.81-60.46C35,127.5,28,115.82,28,115.82c-6,14.76-31.1,11.07-21.62-26.18Z"/><path id="Path_2" data-name="Path 2" class="cls-2" d="M4.89,81.52a55,55,0,0,1,3.33,5.31c7.49-20.43,34.49-11.35,21.57,26.38,5.38,8.24,21.64,22.17,34.83,29.87,37.24,24.72,6.78,40.39,57,66,45.24,25.58,22.16,4,60.14,10.41a25.62,25.62,0,0,0,5.67.34c15.54-.93,27.82-14.4,27.82-14.4l.75-4.2s-39.81,37-104.52-16.95C63.94,145,81.38,94.53,49.51,72.54,26,56.28,91.65,2.62,164.71,33.24,110.63-14.44,21.79,18.38,4.89,81.52Z"/><path id="Path_3" data-name="Path 3" class="cls-3" d="M76.06,97.1C64.26,64.58,44.89,72.37,50.84,58.71c1.75-4,6.62-7.44,10-10.19C81.33,32,124.74,20.1,164.35,37.17a39.25,39.25,0,0,1,5.39,2.88c40.91,26.26,76.68,78.38,51.67,148.51A27.45,27.45,0,0,1,212,201.38a21.66,21.66,0,0,1-7.56,3.58C158.67,216.85,100,181.29,87.21,133.8c-1-4.64-2.24-9.25-3.7-13.78C81.07,112.52,77.6,101.36,76.06,97.1Z"/><ellipse id="Ellipse_1" data-name="Ellipse 1" class="cls-4" cx="19.04" cy="89.66" rx="3.11" ry="1.52" transform="translate(-72.47 94.97) rotate(-81.33)"/><g id="Group_3" data-name="Group 3"><g id="Group_2" data-name="Group 2"><path id="Path_4" data-name="Path 4" class="cls-4" d="M21.06,80.77c5.24.8,8.16,10.12,6.53,20.82s-7.2,18.72-12.44,17.93c-2.47-.38-4.42-2.64-5.63-6.06h0C8.17,104.58,11.29,99,18.15,97,26,94,23.5,76.87,14.21,84.46,16.31,81.82,18.72,80.41,21.06,80.77Zm-3.91,27.6c.26-1.7-.2-3.18-1-3.31s-1.72,1.15-2,2.85.21,3.18,1,3.3,1.72-1.15,2-2.84Z"/></g></g></g><g id="your_second_home" data-name="your second home"><g class="cls-5"><path class="cls-4" d="M16.17,324.67v-3.26c.53,0,1.12,0,1.7,0,6.17,0,9.13-2.48,11.61-9.23l1.41-3.79L11.55,257.22h4l17.2,46.89h.14l17.21-46.89h4l-21,55.69c-3.06,8.16-6.8,11.86-14.77,11.86C17.63,324.77,16.8,324.72,16.17,324.67Z"/><path class="cls-4" d="M58,282.49v-.1c0-16,9.09-26,22.5-26s22.55,10,22.55,26v.1c0,16.09-9.14,26.09-22.55,26.09S58,298.53,58,282.49Zm41.26,0v-.1c0-14-7.58-22.59-18.76-22.59s-18.71,8.65-18.71,22.59v.1c0,14,7.49,22.64,18.71,22.69S99.25,296.48,99.25,282.49Z"/><path class="cls-4" d="M112.7,289V257.22h3.74v31.35c0,10.83,5.78,16.56,15.4,16.56,10,0,16.67-7.24,16.67-17.73V257.22h3.79v50.54h-3.79v-10.5h-.15c-2.33,6.47-8.6,11.28-17.39,11.28C119.6,308.54,112.7,301.35,112.7,289Z"/><path class="cls-4" d="M164.77,257.22h3.79V267h.1c2-6.66,6.61-10.59,13.32-10.59a13.21,13.21,0,0,1,4.71.82V261a12.19,12.19,0,0,0-5.25-1c-8,0-12.88,6.71-12.88,16.33v31.44h-3.79Z"/><path class="cls-4" d="M213.72,293.62l-.05-.44h3.75l.09.44c1,6.85,7,11.66,15.55,11.66s14.63-4.32,14.63-10.59v-.05c0-5.39-3.16-8.17-11.27-10.06l-7-1.65c-9.62-2.24-14-6.17-14-12.78v0c0-8,7.19-13.7,17.2-13.7,10.35,0,17.1,6,18.12,15l0,.44h-3.64l-.05-.34c-1-7.09-6.41-11.76-14.48-11.76-7.87,0-13.41,4.33-13.41,10.35v.05c0,4.81,3.25,7.63,11.37,9.52l7,1.66c9.92,2.33,14,6.17,14,13.16v.05c0,8.31-7.68,14.09-18.42,14.09S214.7,302.41,213.72,293.62Z"/><path class="cls-4" d="M258.66,282.54v-.05c0-16.08,8.89-26.09,22-26.09s21.82,9.81,21.82,25v1.75h-40c.19,14.19,7.63,22.06,18.8,22.06,8.8,0,14.82-4.47,16.67-11.51l.15-.39h3.79l-.1.44c-2,9-9.77,14.86-20.55,14.86C267.5,308.58,258.66,298.72,258.66,282.54Zm3.79-2.58h36.3c-.49-12.53-7.83-20.16-18.13-20.16S262.93,267.57,262.45,280Z"/><path class="cls-4" d="M309.86,282.49v-.05c0-15.94,8.8-26,22.36-26,10.69,0,18.51,6.65,20.06,15.4l.1.49h-3.74l-.1-.44c-1.6-7.05-7.82-12.05-16.32-12.05-11.33,0-18.57,8.79-18.57,22.64v.05c0,14,7.34,22.69,18.57,22.69,8.35,0,14.62-4.86,16.27-12.05l.1-.44h3.74l-.05.44c-1.7,9.14-9.52,15.45-20.06,15.45C318.56,308.58,309.86,298.48,309.86,282.49Z"/><path class="cls-4" d="M359.46,282.49v-.1c0-16,9.09-26,22.5-26s22.55,10,22.55,26v.1c0,16.09-9.14,26.09-22.55,26.09S359.46,298.53,359.46,282.49Zm41.26,0v-.1c0-14-7.58-22.59-18.76-22.59s-18.71,8.65-18.71,22.59v.1c0,14,7.49,22.64,18.71,22.69S400.72,296.48,400.72,282.49Z"/><path class="cls-4" d="M414.46,257.22h3.79v10.5h.09c2.34-6.46,8.65-11.28,17.45-11.28,11.37,0,18.27,7.2,18.27,19.54v31.78h-3.79V276.42c0-10.84-5.74-16.57-15.36-16.57-10,0-16.66,7.24-16.66,17.73v30.18h-3.79Z"/><path class="cls-4" d="M463.72,282.44v-.05c0-15.59,8.74-26,21.23-26a19.13,19.13,0,0,1,18.81,14.19h.14V237.64h3.74v70.12H503.9V294.64h-.24A19.22,19.22,0,0,1,485,308.58C472.41,308.58,463.72,298.09,463.72,282.44Zm40.18.1v-.05c0-13.36-7.67-22.69-18.32-22.69s-18.07,9.08-18.07,22.59v.05c0,13.66,7.29,22.74,18.12,22.74S503.9,295.85,503.9,282.54Z"/><path class="cls-4" d="M542.65,237.64h3.74V268h.15c2.33-6.75,8.74-11.52,17.49-11.52,11.27,0,18.42,7.49,18.42,20.07v31.25h-3.74V277c0-11.13-6-17.1-15.65-17.1-10,0-16.67,7.29-16.67,17.78v30.13h-3.74Z"/><path class="cls-4" d="M592.1,282.49v-.1c0-16,9.09-26,22.5-26s22.55,10,22.55,26v.1c0,16.09-9.14,26.09-22.55,26.09S592.1,298.53,592.1,282.49Zm41.26,0v-.1c0-14-7.58-22.59-18.76-22.59s-18.71,8.65-18.71,22.59v.1c0,14,7.49,22.64,18.71,22.69S633.36,296.48,633.36,282.49Z"/><path class="cls-4" d="M647.1,257.22h3.79v10.45h.1a15.61,15.61,0,0,1,30.17.78h.15a16.21,16.21,0,0,1,16-12c9.77,0,16.23,6.71,16.23,17.21v34.11h-3.79V274.52c0-9.09-5-14.67-13.26-14.67-8.51,0-14.29,6.75-14.29,16.47v31.44h-3.74V274.38c0-8.8-5.49-14.53-13.22-14.53-8.45,0-14.33,7-14.33,17.73v30.18H647.1Z"/><path class="cls-4" d="M723.14,282.54v-.05c0-16.08,8.89-26.09,22-26.09s21.82,9.81,21.82,25v1.75h-40c.19,14.19,7.62,22.06,18.8,22.06,8.8,0,14.82-4.47,16.67-11.51l.14-.39h3.79l-.09.44c-2,9-9.77,14.86-20.56,14.86C732,308.58,723.14,298.72,723.14,282.54Zm3.79-2.58h36.29c-.48-12.53-7.82-20.16-18.12-20.16S727.41,267.57,726.93,280Z"/></g></g><g id="COSMiC" class="cls-5"><g class="cls-5"><path class="cls-1" d="M240.88,54.36v-.07c0-30.73,17.68-48.68,45.79-48.68,24.59,0,41.62,15.79,42.47,36.87v.66h-23l-.13-1c-1.5-9.79-8.35-16.71-19.31-16.71-13.11,0-21.39,10.77-21.39,28.78v.06c0,18.21,8.35,29,21.46,29,10.37,0,17.74-6.46,19.37-17l.13-.72h23l-.07.72c-.85,21.07-18.07,36.8-42.53,36.8C258.43,103.17,240.88,85.09,240.88,54.36Z"/><path class="cls-1" d="M337.88,54.42v-.13c0-29.95,18-48.68,46.44-48.68,28.64,0,46.51,18.73,46.51,48.68v.13c0,30-17.81,48.75-46.51,48.75S337.88,84.44,337.88,54.42Zm68.62,0v-.13c0-17.81-8.68-28.84-22.18-28.84s-22.05,11-22.05,28.84v.13c0,17.88,8.61,28.91,22.05,28.91C398,83.33,406.5,72.11,406.5,54.42Z"/><path class="cls-1" d="M439.51,74.78l-.07-1.17h22.25l.13.72c1.17,6.07,8.21,10,17.41,10,9.53,0,15.4-4,15.4-9.92v-.07c0-5.35-4.18-7.83-15.2-10l-9.66-1.83c-18.65-3.46-28.5-12.66-28.5-27.08v-.07c0-18.14,15.72-29.82,37.31-29.82,23.61,0,37,11.1,37.83,28.19l.07,1.37H494.24l-.07-.71c-.72-6.2-6.78-10-15.39-10-8.81,0-13.77,4-13.77,9.39v.07c0,5.09,4.44,7.76,14.55,9.66l9.65,1.82c20,3.85,29.23,11.94,29.23,27v.06c0,18.8-14.75,30.74-39.66,30.74C455.36,103.17,440.55,92.79,439.51,74.78Z"/><path class="cls-1" d="M529.46,7.31h27.66l23.61,61.54h.39L604.74,7.31h27.65v94.16H611.32V42.61h-.52l-23,58.86h-13.7l-23-58.86h-.52v58.86H529.46Z"/><path class="cls-1" d="M645,11.35a11.82,11.82,0,0,1,23.62,0,11.82,11.82,0,0,1-23.62,0Zm.26,19.06h23.1v71.06h-23.1Z"/><path class="cls-1" d="M678.58,54.36v-.07c0-30.73,17.68-48.68,45.79-48.68C749,5.61,766,21.4,766.84,42.48v.66h-23l-.13-1c-1.5-9.79-8.35-16.71-19.31-16.71-13.11,0-21.4,10.77-21.4,28.78v.06c0,18.21,8.35,29,21.46,29,10.38,0,17.75-6.46,19.38-17l.13-.72h23l-.07.72c-.85,21.07-18.07,36.8-42.53,36.8C696.12,103.17,678.58,85.09,678.58,54.36Z"/></g></g><g id="LOUNGE" class="cls-5"><g class="cls-5"><path class="cls-6" d="M246.88,127.39h23.64v73.94H309v19H246.88Z"/><path class="cls-6" d="M313.35,173.89v-.13c0-29.56,17.78-48,45.86-48,28.27,0,45.92,18.48,45.92,48v.13c0,29.63-17.58,48.12-45.92,48.12S313.35,203.52,313.35,173.89Zm67.76,0v-.13c0-17.58-8.57-28.46-21.9-28.46s-21.77,10.82-21.77,28.46v.13c0,17.65,8.5,28.53,21.77,28.53C372.73,202.42,381.11,191.35,381.11,173.89Z"/><path class="cls-6" d="M416.66,187.35v-60H440.3V185.1c0,10.82,5.79,17.32,16.42,17.32s16.36-6.5,16.36-17.32V127.39h23.64v60c0,20.87-15.65,34.66-40.06,34.66C432.44,222,416.66,208.29,416.66,187.35Z"/><path class="cls-6" d="M510.76,127.39h20L568,181h.45V127.39H592v92.94H572.14L534.78,166.1h-.45v54.23H510.76Z"/><path class="cls-6" d="M603.44,173.7v-.06c0-30.15,17.32-47.92,45.34-47.92,22.8,0,39.22,13.39,41.67,31.43l.13.77H667.2l-.19-.64c-2.45-7.54-9.08-12-18.17-12-13.39,0-21.31,10-21.31,28.08v.06c0,18.42,8.76,29,22.35,29,10.69,0,18-5.79,18.8-15.13l.07-1.16H650.13V169.38h41.42V181c0,25.44-15.72,41-42.19,41C620.7,222,603.44,204.29,603.44,173.7Z"/><path class="cls-6" d="M703.27,127.39H767v19H726.91v18.36h37.67v17.77H726.91v18.81H767v19h-63.7Z"/></g></g></g></g></svg>