<svg xmlns="http://www.w3.org/2000/svg" viewBox="0 0 526.09 222.01"><defs><style>.cls-1{isolation:isolate;}.cls-2{fill:#f08c2f;}.cls-3{fill:#2d2f75;}</style></defs><g id="Layer_2" data-name="Layer 2"><g id="Layer_1-2" data-name="Layer 1"><g id="COSMiC" class="cls-1"><g class="cls-1"><path class="cls-2" d="M0,54.36v-.07C0,23.56,17.68,5.61,45.79,5.61c24.59,0,41.62,15.79,42.47,36.87v.66h-23l-.13-1c-1.5-9.79-8.35-16.71-19.31-16.71-13.11,0-21.39,10.77-21.39,28.78v.06c0,18.21,8.35,29,21.46,29,10.37,0,17.74-6.46,19.37-17l.13-.72h23l-.07.72c-.84,21.07-18.07,36.8-42.53,36.8C17.55,103.17,0,85.09,0,54.36Z"/><path class="cls-2" d="M97,54.42v-.13c0-29.95,18-48.68,46.44-48.68C172.08,5.61,190,24.34,190,54.29v.13c0,30-17.81,48.75-46.51,48.75S97,84.44,97,54.42Zm68.62,0v-.13c0-17.81-8.67-28.84-22.18-28.84s-22,11-22,28.84v.13c0,17.88,8.61,28.91,22,28.91C157.14,83.33,165.62,72.11,165.62,54.42Z"/><path class="cls-2" d="M198.63,74.78l-.07-1.17h22.25l.13.72c1.17,6.07,8.22,10,17.41,10,9.53,0,15.4-4,15.4-9.92v-.07c0-5.35-4.18-7.83-15.2-10l-9.66-1.83c-18.65-3.46-28.5-12.66-28.5-27.08v-.07c0-18.14,15.72-29.82,37.31-29.82,23.61,0,37,11.1,37.84,28.19l.06,1.37H253.36l-.07-.71c-.72-6.2-6.78-10-15.39-10-8.81,0-13.77,4-13.77,9.39v.07c0,5.09,4.44,7.76,14.55,9.66l9.65,1.82c20,3.85,29.23,11.94,29.23,27v.06c0,18.8-14.74,30.74-39.66,30.74C214.48,103.17,199.67,92.79,198.63,74.78Z"/><path class="cls-2" d="M288.58,7.31h27.66l23.61,61.54h.39L363.86,7.31h27.66v94.16H370.45V42.61h-.52l-23,58.86H333.2l-23-58.86h-.52v58.86H288.58Z"/><path class="cls-2" d="M404.1,11.35a11.82,11.82,0,0,1,23.62,0,11.82,11.82,0,0,1-23.62,0Zm.27,19.06h23.09v71.06H404.37Z"/><path class="cls-2" d="M437.7,54.36v-.07c0-30.73,17.68-48.68,45.79-48.68,24.59,0,41.62,15.79,42.47,36.87v.66h-23l-.13-1c-1.5-9.79-8.35-16.71-19.31-16.71-13.11,0-21.4,10.77-21.4,28.78v.06c0,18.21,8.35,29,21.47,29,10.37,0,17.74-6.46,19.37-17l.13-.72h23l-.07.72c-.85,21.07-18.07,36.8-42.53,36.8C455.25,103.17,437.7,85.09,437.7,54.36Z"/></g></g><g id="LOUNGE" class="cls-1"><g class="cls-1"><path class="cls-3" d="M6,127.39H29.64v73.94H68.09v19H6Z"/><path class="cls-3" d="M72.47,173.89v-.13c0-29.56,17.78-48,45.86-48,28.27,0,45.92,18.48,45.92,48v.13c0,29.63-17.58,48.12-45.92,48.12S72.47,203.52,72.47,173.89Zm67.76,0v-.13c0-17.58-8.57-28.46-21.9-28.46s-21.77,10.82-21.77,28.46v.13c0,17.65,8.5,28.53,21.77,28.53C131.86,202.42,140.23,191.35,140.23,173.89Z"/><path class="cls-3" d="M175.78,187.35v-60h23.64V185.1c0,10.82,5.79,17.32,16.42,17.32s16.36-6.5,16.36-17.32V127.39h23.64v60c0,20.87-15.65,34.66-40.06,34.66C191.56,222,175.78,208.29,175.78,187.35Z"/><path class="cls-3" d="M269.88,127.39h20L327.07,181h.45V127.39h23.57v92.94H331.26L293.9,166.1h-.45v54.23H269.88Z"/><path class="cls-3" d="M362.56,173.7v-.06c0-30.15,17.32-47.92,45.34-47.92,22.8,0,39.23,13.39,41.67,31.43l.13.77H426.32l-.19-.64c-2.45-7.54-9.08-12-18.16-12-13.4,0-21.32,10-21.32,28.08v.06c0,18.42,8.76,29,22.35,29,10.69,0,18-5.79,18.8-15.13l.07-1.16H409.25V169.38h41.42V181c0,25.44-15.72,41-42.19,41C379.82,222,362.56,204.29,362.56,173.7Z"/><path class="cls-3" d="M462.39,127.39h63.7v19H486v18.36h37.68v17.77H486v18.81h40.06v19h-63.7Z"/></g></g></g></g></svg>