<svg xmlns="http://www.w3.org/2000/svg" viewBox="0 0 830.2 79.51"><defs><style>.cls-1{isolation:isolate;}.cls-2{fill:#f08c2f;}.cls-3{fill:#2d2f75;}</style></defs><g id="Layer_2" data-name="Layer 2"><g id="Layer_1-2" data-name="Layer 1"><g id="COSMiC" class="cls-1"><g class="cls-1"><path class="cls-2" d="M0,41.9v-.06C0,18.16,13.62,4.33,35.29,4.33c19,0,32.08,12.17,32.73,28.41v.5H50.28l-.11-.75C49,25,43.74,19.62,35.29,19.62c-10.1,0-16.49,8.29-16.49,22.17v.05c0,14,6.44,22.38,16.54,22.38,8,0,13.68-5,14.94-13.07l.1-.55H68.12l-.05.55c-.65,16.24-13.92,28.36-32.78,28.36C13.52,79.51,0,65.58,0,41.9Z"/><path class="cls-2" d="M74.76,42v-.11c0-23.08,13.87-37.51,35.79-37.51,22.07,0,35.85,14.43,35.85,37.51V42c0,23.13-13.73,37.56-35.85,37.56S74.76,65.08,74.76,42Zm52.89,0v-.11c0-13.72-6.69-22.22-17.1-22.22s-17,8.44-17,22.22V42c0,13.78,6.64,22.27,17,22.27C121.11,64.22,127.65,55.57,127.65,42Z"/><path class="cls-2" d="M153.09,57.64l-.05-.91h17.14l.1.55C171.18,62,176.61,65,183.7,65c7.34,0,11.87-3.12,11.87-7.64v-.06c0-4.12-3.22-6-11.72-7.69l-7.44-1.41c-14.38-2.66-22-9.76-22-20.87v-.05c0-14,12.12-23,28.76-23,18.2,0,28.51,8.55,29.16,21.72l0,1.06H195.27l-.05-.55c-.56-4.78-5.23-7.75-11.87-7.75s-10.61,3.07-10.61,7.24v.05c0,3.93,3.42,6,11.21,7.45l7.44,1.4c15.39,3,22.53,9.21,22.53,20.83v0c0,14.48-11.36,23.68-30.57,23.68C165.3,79.51,153.89,71.52,153.09,57.64Z"/><path class="cls-2" d="M222.41,5.63h21.32l18.2,47.43h.3l18.2-47.43h21.32V78.21H285.51V32.84h-.4L267.36,78.21H256.8L239.06,32.84h-.41V78.21H222.41Z"/><path class="cls-2" d="M311.45,8.75a9.11,9.11,0,0,1,18.2,0,9.11,9.11,0,0,1-18.2,0Zm.2,14.69h17.8V78.21h-17.8Z"/><path class="cls-2" d="M337.34,41.9v-.06c0-23.68,13.63-37.51,35.29-37.51,19,0,32.08,12.17,32.73,28.41v.5H387.62l-.1-.75c-1.16-7.54-6.44-12.87-14.89-12.87-10.1,0-16.49,8.29-16.49,22.17v.05c0,14,6.44,22.38,16.54,22.38,8,0,13.68-5,14.94-13.07l.1-.55h17.74l0,.55c-.65,16.24-13.92,28.36-32.78,28.36C350.86,79.51,337.34,65.58,337.34,41.9Z"/></g></g><g id="LOUNGE" class="cls-1"><g class="cls-1"><path class="cls-3" d="M429.36,6.11h18.22v57h29.64V77.74H429.36Z"/><path class="cls-3" d="M480.59,41.94v-.09c0-22.79,13.7-37,35.34-37,21.8,0,35.4,14.25,35.4,37v.09c0,22.84-13.55,37.09-35.4,37.09S480.59,64.78,480.59,41.94Zm52.22,0v-.09c0-13.56-6.6-21.94-16.88-21.94s-16.77,8.33-16.77,21.94v.09c0,13.61,6.55,22,16.77,22C526.36,63.93,532.81,55.4,532.81,41.94Z"/><path class="cls-3" d="M560.21,52.32V6.11h18.22V50.58c0,8.34,4.47,13.35,12.66,13.35s12.61-5,12.61-13.35V6.11h18.21V52.32C621.91,68.4,609.85,79,591,79S560.21,68.45,560.21,52.32Z"/><path class="cls-3" d="M632.74,6.11h15.43l28.65,41.34h.34V6.11h18.17V77.74H680l-28.79-41.8h-.35v41.8H632.74Z"/><path class="cls-3" d="M704.17,41.8v0c0-23.23,13.35-36.94,34.94-36.94,17.57,0,30.23,10.33,32.12,24.23l.1.59h-18l-.15-.49c-1.89-5.81-7-9.23-14-9.23-10.32,0-16.43,7.74-16.43,21.64v.05c0,14.19,6.75,22.33,17.23,22.33,8.24,0,13.9-4.46,14.49-11.66l0-.89H740.15V38.47h31.92v9C772.07,67.06,760,79,739.56,79,717.47,79,704.17,65.37,704.17,41.8Z"/><path class="cls-3" d="M781.11,6.11H830.2V20.75H799.33V34.9h29V48.6h-29V63.09H830.2V77.74H781.11Z"/></g></g></g></g></svg>