<svg xmlns="http://www.w3.org/2000/svg" width="221.741" height="219.543" viewBox="0 0 221.741 219.543">
  <g id="Group_55" data-name="Group 55" transform="translate(-246 -178.587)">
    <path id="Path_1" data-name="Path 1" d="M277.482,123.319c-1.595,4.046-19.6,50.846,35.3,87.646,63.344,41.626,145.089,89.888,166.505,33.18-11.462,11.764-19.62,13.751-36.2,11.349-17.14-1.781-13.652,10.895-31.65,2.062s-31.974-15.193-42.493-23.677c-27.654-20.019-1.684-31.893-43.262-58.362-18.5-12.138-25.279-23.412-25.279-23.412-5.769,14.251-30.029,10.689-20.868-25.279Z" transform="translate(-27.401 128.125)" fill="#ec751f"/>
    <path id="Path_2" data-name="Path 2" d="M280.151,87.63a50.993,50.993,0,0,1,3.212,5.125c7.24-19.724,33.3-10.961,20.824,25.465,5.2,7.959,20.9,21.407,33.624,28.833,35.954,23.865,6.546,39,55.058,63.737,43.675,24.7,21.4,3.884,58.059,10.048a24.276,24.276,0,0,0,5.48.334c15-.9,26.85-13.9,26.85-13.9l.726-4.062s-38.432,35.691-100.9-16.354C337.158,148.9,354,100.185,323.225,78.962c-22.717-15.7,40.69-67.507,111.22-37.947C382.23-5.007,296.466,26.673,280.151,87.63Z" transform="translate(-29.433 159.488)" fill="#9ea9d5"/>
    <path id="Path_3" data-name="Path 3" d="M367.492,110.284c-11.391-31.4-30.09-23.874-24.347-37.07,1.689-3.881,6.389-7.179,9.683-9.837,19.753-15.939,61.657-27.435,99.9-10.948a36.059,36.059,0,0,1,5.2,2.777c39.5,25.353,74.033,75.668,49.888,143.365a26.57,26.57,0,0,1-9.092,12.381,21.013,21.013,0,0,1-7.3,3.456c-44.175,11.477-100.864-22.848-113.166-68.7-1.014-4.48-2.158-8.928-3.574-13.3C372.329,125.169,368.983,114.393,367.492,110.284Z" transform="translate(-48.067 151.877)" fill="#142262" opacity="0.78"/>
    <ellipse id="Ellipse_1" data-name="Ellipse 1" cx="3.005" cy="1.471" rx="3.005" ry="1.471" transform="translate(262.473 257.726) rotate(-81.328)" fill="#f6f7fa"/>
    <g id="Group_3" data-name="Group 3" transform="translate(254.897 246.338)">
      <g id="Group_2" data-name="Group 2" transform="translate(0)">
        <path id="Path_4" data-name="Path 4" d="M297.563,116.069c5.056.77,7.877,9.767,6.3,20.1s-6.95,18.076-12.009,17.306c-2.379-.362-4.266-2.549-5.428-5.845v0c-1.309-8.57,1.7-13.941,8.324-15.9,7.616-2.849,5.17-19.427-3.8-12.1C292.974,117.085,295.3,115.722,297.563,116.069Zm-3.773,26.642c.25-1.641-.2-3.069-1-3.192s-1.66,1.109-1.909,2.749.2,3.069,1,3.192S293.54,144.351,293.79,142.711Z" transform="translate(-286.129 -116.016)" fill="#f6f7fa"/>
      </g>
    </g>
  </g>
</svg>
