<svg id="Layer_1" data-name="Layer 1" xmlns="http://www.w3.org/2000/svg" viewBox="0 0 455.4 434.08"><defs><style>.cls-1{fill:#eb7524;}.cls-2{fill:#9fa9d6;}.cls-3{fill:#252860;opacity:0.78;}.cls-3,.cls-5{isolation:isolate;}.cls-4{fill:#f6f7fa;}.cls-6{fill:#2d2f75;}.cls-7{fill:#cbcee8;}.cls-8{fill:#f08c2f;}</style></defs><g id="Group_55" data-name="Group 55"><path id="Path_1" data-name="Path 1" class="cls-1" d="M313.1,288.2c-1.6,4-19.6,50.84,35.3,87.64,63.34,41.63,145.09,89.89,166.5,33.18-11.46,11.77-19.62,13.75-36.2,11.35-17.14-1.78-13.65,10.9-31.65,2.06s-32-15.19-42.49-23.67c-27.65-20-1.68-31.9-43.26-58.37C342.8,328.26,336,317,336,317c-5.77,14.25-30,10.69-20.87-25.28Z" transform="translate(-189.22 -215.34)"/><path id="Path_2" data-name="Path 2" class="cls-2" d="M313.73,283.87A48.52,48.52,0,0,1,317,289c7.24-19.73,33.3-11,20.82,25.46,5.2,8,20.9,21.41,33.62,28.83,36,23.87,6.55,39,55.06,63.74,43.68,24.7,21.4,3.88,58.06,10.05a24,24,0,0,0,5.48.33c15-.9,26.85-13.9,26.85-13.9l.73-4.06s-38.43,35.69-100.9-16.35c-45.93-38-29.09-86.67-59.86-107.9C334.09,259.5,397.5,207.7,468,237.26,415.81,191.23,330.05,222.91,313.73,283.87Z" transform="translate(-189.22 -215.34)"/><path id="Path_3" data-name="Path 3" class="cls-3" d="M382.44,298.91c-11.39-31.4-30.09-23.87-24.35-37.07,1.69-3.88,6.39-7.18,9.69-9.83,19.75-15.94,61.65-27.44,99.9-10.95a36.08,36.08,0,0,1,5.2,2.78c39.5,25.35,74,75.66,49.89,143.36a26.57,26.57,0,0,1-9.1,12.38,21,21,0,0,1-7.3,3.46c-44.17,11.47-100.86-22.85-113.16-68.7-1-4.48-2.16-8.93-3.58-13.3C387.28,313.8,383.93,303,382.44,298.91Z" transform="translate(-189.22 -215.34)"/><ellipse id="Ellipse_1" data-name="Ellipse 1" class="cls-4" cx="327.4" cy="291.73" rx="3.01" ry="1.47" transform="translate(-199.58 356.06) rotate(-81.33)"/><g id="Group_3" data-name="Group 3"><g id="Group_2" data-name="Group 2"><path id="Path_4" data-name="Path 4" class="cls-4" d="M329.35,283.14c5,.77,7.87,9.77,6.3,20.1s-6.95,18.08-12,17.31c-2.38-.36-4.27-2.55-5.43-5.85h0c-1.31-8.57,1.7-13.94,8.32-15.9,7.62-2.84,5.17-19.42-3.8-12.1C324.76,284.16,327.08,282.8,329.35,283.14Zm-3.78,26.65c.25-1.65-.2-3.07-1-3.2s-1.66,1.11-1.9,2.75.2,3.07,1,3.19,1.65-1.1,1.9-2.74Z" transform="translate(-189.22 -215.34)"/></g></g></g><g id="your_second_home" data-name="your second home" class="cls-5"><g class="cls-5"><path class="cls-6" d="M192,649.36v-2c.33,0,.68,0,1,0,3.72,0,5.51-1.5,7-5.57l.85-2.28L189.22,608.7h2.43L202,637h.09l10.37-28.27h2.44l-12.63,33.57c-1.85,4.92-4.1,7.15-8.91,7.15C192.88,649.42,192.39,649.39,192,649.36Z" transform="translate(-189.22 -215.34)"/><path class="cls-6" d="M217.22,623.93v-.06c0-9.64,5.48-15.67,13.56-15.67s13.6,6,13.6,15.67v.06c0,9.7-5.51,15.73-13.6,15.73S217.22,633.6,217.22,623.93Zm24.87,0v-.06c0-8.44-4.57-13.62-11.31-13.62s-11.28,5.21-11.28,13.62v.06c0,8.44,4.52,13.65,11.28,13.68S242.09,632.37,242.09,623.93Z" transform="translate(-189.22 -215.34)"/><path class="cls-6" d="M250.2,627.86V608.7h2.25v18.89c0,6.54,3.49,10,9.29,10,6,0,10.05-4.36,10.05-10.69V608.7h2.28v30.47h-2.28v-6.33h-.09c-1.41,3.89-5.19,6.79-10.49,6.79C254.36,639.63,250.2,635.3,250.2,627.86Z" transform="translate(-189.22 -215.34)"/><path class="cls-6" d="M281.59,608.7h2.29v5.88h.05c1.21-4,4-6.38,8-6.38a7.82,7.82,0,0,1,2.84.5V611a7.29,7.29,0,0,0-3.16-.61c-4.81,0-7.76,4-7.76,9.84v19h-2.29Z" transform="translate(-189.22 -215.34)"/><path class="cls-6" d="M311.1,630.64l0-.26h2.26l.06.26c.58,4.13,4.21,7,9.37,7s8.82-2.61,8.82-6.39v0c0-3.25-1.91-4.92-6.8-6.06l-4.25-1c-5.8-1.34-8.46-3.72-8.46-7.7v0c0-4.83,4.33-8.26,10.37-8.26,6.24,0,10.31,3.6,10.93,9l0,.27h-2.2l0-.21c-.59-4.28-3.87-7.09-8.73-7.09s-8.09,2.61-8.09,6.24v0c0,2.9,2,4.6,6.86,5.74l4.25,1c6,1.4,8.43,3.72,8.43,7.94v0c0,5-4.63,8.49-11.1,8.49S311.69,635.94,311.1,630.64Z" transform="translate(-189.22 -215.34)"/><path class="cls-6" d="M338.19,624v0c0-9.7,5.36-15.73,13.27-15.73s13.15,5.92,13.15,15.06v1H340.47c.12,8.56,4.6,13.3,11.34,13.3,5.3,0,8.94-2.69,10.05-6.94l.09-.24h2.28l-.05.27c-1.21,5.45-5.89,9-12.4,9C343.52,639.66,338.19,633.72,338.19,624Zm2.28-1.55h21.89c-.29-7.56-4.72-12.16-10.93-12.16S340.77,614.94,340.47,622.41Z" transform="translate(-189.22 -215.34)"/><path class="cls-6" d="M369.06,623.93v0c0-9.61,5.3-15.7,13.47-15.7,6.45,0,11.17,4,12.1,9.29l.06.29h-2.25l-.06-.27c-1-4.24-4.72-7.26-9.85-7.26-6.82,0-11.19,5.3-11.19,13.65v0c0,8.47,4.43,13.68,11.19,13.68,5,0,8.82-2.93,9.82-7.26l.06-.27h2.25l0,.27c-1,5.5-5.74,9.31-12.1,9.31C374.3,639.66,369.06,633.57,369.06,623.93Z" transform="translate(-189.22 -215.34)"/><path class="cls-6" d="M399,623.93v-.06c0-9.64,5.48-15.67,13.56-15.67s13.6,6,13.6,15.67v.06c0,9.7-5.51,15.73-13.6,15.73S399,633.6,399,623.93Zm24.87,0v-.06c0-8.44-4.57-13.62-11.31-13.62s-11.28,5.21-11.28,13.62v.06c0,8.44,4.51,13.65,11.28,13.68S423.83,632.37,423.83,623.93Z" transform="translate(-189.22 -215.34)"/><path class="cls-6" d="M432.11,608.7h2.29V615h.05c1.41-3.89,5.22-6.79,10.52-6.79,6.86,0,11,4.33,11,11.77v19.17H453.7v-18.9c0-6.53-3.45-10-9.26-10-6,0-10,4.36-10,10.69v18.2h-2.29Z" transform="translate(-189.22 -215.34)"/><path class="cls-7" d="M461.81,623.9v0c0-9.4,5.27-15.67,12.8-15.67A11.54,11.54,0,0,1,486,616.75H486V596.89h2.25v42.28H486v-7.92h-.15a11.59,11.59,0,0,1-11.28,8.41C467.05,639.66,461.81,633.33,461.81,623.9ZM486,624v0c0-8.06-4.63-13.68-11.05-13.68s-10.9,5.48-10.9,13.62v0c0,8.23,4.4,13.71,10.93,13.71S486,632,486,624Z" transform="translate(-189.22 -215.34)"/><path class="cls-7" d="M509.39,596.89h2.26v18.28h.09c1.4-4.07,5.27-6.94,10.54-6.94,6.8,0,11.11,4.51,11.11,12.1v18.84h-2.26V620.59c0-6.71-3.63-10.31-9.43-10.31-6,0-10.05,4.39-10.05,10.72v18.17h-2.26Z" transform="translate(-189.22 -215.34)"/><path class="cls-7" d="M539.21,623.93v-.06c0-9.64,5.47-15.67,13.56-15.67s13.59,6,13.59,15.67v.06c0,9.7-5.5,15.73-13.59,15.73S539.21,633.6,539.21,623.93Zm24.87,0v-.06c0-8.44-4.57-13.62-11.31-13.62s-11.28,5.21-11.28,13.62v.06c0,8.44,4.51,13.65,11.28,13.68S564.08,632.37,564.08,623.93Z" transform="translate(-189.22 -215.34)"/><path class="cls-7" d="M572.36,608.7h2.28V615h.06a9.42,9.42,0,0,1,18.2.46H593a9.78,9.78,0,0,1,9.64-7.23c5.89,0,9.79,4,9.79,10.37v20.57h-2.29v-20c0-5.48-3-8.85-8-8.85s-8.61,4.07-8.61,9.93v19h-2.26V619c0-5.3-3.31-8.76-8-8.76-5.1,0-8.65,4.22-8.65,10.69v18.2h-2.28Z" transform="translate(-189.22 -215.34)"/><path class="cls-7" d="M618.2,624v0c0-9.7,5.36-15.73,13.27-15.73s13.15,5.92,13.15,15.06v1H620.48c.12,8.56,4.6,13.3,11.34,13.3,5.3,0,8.94-2.69,10-6.94l.09-.24h2.28l-.06.27c-1.2,5.45-5.89,9-12.39,9C623.53,639.66,618.2,633.72,618.2,624Zm2.28-1.55h21.89c-.3-7.56-4.72-12.16-10.93-12.16S620.78,614.94,620.48,622.41Z" transform="translate(-189.22 -215.34)"/></g></g><g id="COSMiC" class="cls-5"><g class="cls-5"><path class="cls-8" d="M257.75,484.44v0c0-18.63,10.71-29.51,27.76-29.51,14.91,0,25.23,9.57,25.75,22.35v.39h-14l-.08-.59c-.91-5.93-5.07-10.12-11.71-10.12-7.95,0-13,6.52-13,17.44v0c0,11,5.06,17.6,13,17.6,6.29,0,10.76-3.92,11.75-10.29l.08-.43h14l0,.43c-.52,12.78-11,22.31-25.79,22.31C268.38,514,257.75,503.06,257.75,484.44Z" transform="translate(-189.22 -215.34)"/><path class="cls-8" d="M316.56,484.48v-.08c0-18.16,10.91-29.51,28.16-29.51s28.2,11.35,28.2,29.51v.08c0,18.19-10.8,29.54-28.2,29.54S316.56,502.67,316.56,484.48Zm41.61,0v-.08c0-10.8-5.27-17.48-13.45-17.48s-13.37,6.64-13.37,17.48v.08c0,10.83,5.22,17.52,13.37,17.52S358.17,495.19,358.17,484.48Z" transform="translate(-189.22 -215.34)"/><path class="cls-8" d="M378.18,496.82l0-.72h13.48l.08.44c.72,3.68,5,6.09,10.56,6.09,5.78,0,9.34-2.45,9.34-6v0c0-3.24-2.53-4.75-9.22-6.05l-5.85-1.11c-11.31-2.1-17.28-7.67-17.28-16.41v0c0-11,9.53-18.08,22.62-18.08,14.32,0,22.42,6.73,22.94,17.09l0,.83H411.36l0-.44c-.43-3.75-4.11-6.09-9.33-6.09s-8.35,2.42-8.35,5.7v0c0,3.08,2.69,4.7,8.82,5.85l5.86,1.11c12.1,2.33,17.71,7.24,17.71,16.37v0c0,11.39-8.93,18.63-24,18.63C387.79,514,378.81,507.73,378.18,496.82Z" transform="translate(-189.22 -215.34)"/><path class="cls-8" d="M432.72,455.92h16.77l14.31,37.3H464l14.32-37.3h16.77V513H482.35V477.32H482l-14,35.67h-8.31l-14-35.67h-.32V513H432.72Z" transform="translate(-189.22 -215.34)"/><path class="cls-8" d="M502.76,458.37a7.16,7.16,0,1,1,7.16,6.92A7,7,0,0,1,502.76,458.37Zm.16,11.55h14V513h-14Z" transform="translate(-189.22 -215.34)"/><path class="cls-8" d="M523.13,484.44v0c0-18.63,10.72-29.51,27.77-29.51,14.91,0,25.23,9.57,25.74,22.35v.39h-14l-.08-.59c-.91-5.93-5.06-10.12-11.7-10.12-7.95,0-13,6.52-13,17.44v0c0,11,5.07,17.6,13,17.6,6.28,0,10.75-3.92,11.74-10.29l.08-.43h14l0,.43C576.17,504.49,565.73,514,550.9,514,533.77,514,523.13,503.06,523.13,484.44Z" transform="translate(-189.22 -215.34)"/></g></g><g id="LOUNGE" class="cls-5"><g class="cls-5"><path class="cls-6" d="M257.33,529.92h14.51v45.4h23.61V587H257.33Z" transform="translate(-189.22 -215.34)"/><path class="cls-6" d="M298.14,558.48v-.08c0-18.16,10.92-29.51,28.16-29.51s28.2,11.35,28.2,29.51v.08c0,18.19-10.79,29.54-28.2,29.54S298.14,576.67,298.14,558.48Zm41.61,0v-.08c0-10.8-5.26-17.48-13.45-17.48s-13.36,6.64-13.36,17.48v.08c0,10.83,5.22,17.52,13.36,17.52C334.61,576,339.75,569.19,339.75,558.48Z" transform="translate(-189.22 -215.34)"/><path class="cls-6" d="M361.58,566.74V529.92H376.1v35.44c0,6.64,3.56,10.64,10.08,10.64s10.05-4,10.05-10.64V529.92h14.52v36.82c0,12.82-9.62,21.28-24.61,21.28S361.58,579.6,361.58,566.74Z" transform="translate(-189.22 -215.34)"/><path class="cls-6" d="M419.37,529.92h12.3l22.82,33h.27v-33h14.48V587H457.06l-22.94-33.3h-.28V587H419.37Z" transform="translate(-189.22 -215.34)"/><path class="cls-6" d="M476.28,558.36v0c0-18.51,10.64-29.43,27.84-29.43,14,0,24.09,8.23,25.59,19.3l.08.48H515.44l-.12-.4c-1.51-4.63-5.58-7.35-11.16-7.35-8.22,0-13.09,6.17-13.09,17.24v0c0,11.31,5.38,17.8,13.73,17.8,6.56,0,11.07-3.56,11.55-9.3l0-.71H505V555.71h25.43v7.16c0,15.62-9.65,25.15-25.91,25.15C486.88,588,476.28,577.14,476.28,558.36Z" transform="translate(-189.22 -215.34)"/><path class="cls-6" d="M537.58,529.92H576.7v11.67H552.1v11.27h23.14v10.92H552.1v11.54h24.6V587H537.58Z" transform="translate(-189.22 -215.34)"/></g></g></svg>