<svg xmlns="http://www.w3.org/2000/svg" viewBox="0 0 498.62 475.27"><defs><style>.cls-1{fill:#eb7524;}.cls-2{fill:#9fa9d6;}.cls-3{fill:#252860;opacity:0.78;}.cls-3,.cls-5{isolation:isolate;}.cls-4{fill:#f6f7fa;}.cls-6{fill:#f08c2f;}.cls-7{fill:#2d2f75;}</style></defs><g id="Layer_2" data-name="Layer 2"><g id="Layer_1-2" data-name="Layer 1"><g id="Group_55" data-name="Group 55"><path id="Path_1" data-name="Path 1" class="cls-1" d="M135.63,79.77c-1.75,4.43-21.46,55.67,38.65,96,69.36,45.57,158.86,98.41,182.31,36.32C344,224.94,335.11,227.12,317,224.49c-18.76-2-14.95,11.93-34.65,2.26s-35-16.64-46.53-25.93c-30.28-21.91-1.84-34.92-47.36-63.9-20.26-13.29-27.68-25.63-27.68-25.63-6.32,15.6-32.88,11.7-22.85-27.68Z"/><path id="Path_2" data-name="Path 2" class="cls-2" d="M136.33,75a55,55,0,0,1,3.52,5.61c7.92-21.6,36.46-12,22.8,27.88,5.69,8.71,22.88,23.44,36.81,31.57,39.37,26.13,7.17,42.7,60.28,69.78,47.82,27.05,23.43,4.26,63.57,11a26.22,26.22,0,0,0,6,.37c16.43-1,29.4-15.22,29.4-15.22l.8-4.45S317.43,240.66,249,183.68c-50.28-41.56-31.84-94.9-65.54-118.14C158.62,48.35,228-8.37,305.26,24,248.09-26.39,154.19,8.29,136.33,75Z"/><path id="Path_3" data-name="Path 3" class="cls-3" d="M211.56,91.51c-12.48-34.38-32.95-26.14-26.66-40.59,1.85-4.25,7-7.86,10.6-10.77,21.63-17.45,67.51-30,109.38-12a39.31,39.31,0,0,1,5.69,3c43.25,27.76,81.06,82.85,54.63,157a29.11,29.11,0,0,1-10,13.56,23,23,0,0,1-8,3.78c-48.37,12.57-110.44-25-123.91-75.22-1.11-4.9-2.36-9.77-3.91-14.56C216.85,107.8,213.19,96,211.56,91.51Z"/><ellipse id="Ellipse_1" data-name="Ellipse 1" class="cls-4" cx="151.29" cy="83.64" rx="3.29" ry="1.61" transform="translate(45.79 220.59) rotate(-81.33)"/><g id="Group_3" data-name="Group 3"><g id="Group_2" data-name="Group 2"><path id="Path_4" data-name="Path 4" class="cls-4" d="M153.42,74.24c5.54.84,8.63,10.69,6.9,22s-7.61,19.79-13.15,19c-2.6-.4-4.67-2.8-5.94-6.4h0c-1.43-9.39,1.86-15.27,9.11-17.41,8.34-3.12,5.66-21.27-4.16-13.25C148.4,75.35,151,73.86,153.42,74.24Zm-4.13,29.17c.28-1.8-.22-3.36-1.09-3.5s-1.82,1.22-2.09,3,.22,3.36,1.09,3.5,1.82-1.21,2.09-3Z"/></g></g></g><g id="your_second_home" data-name="your second home"><g class="cls-5"><path class="cls-4" d="M3.05,475.21v-2.15c.35,0,.73,0,1.12,0,4.07,0,6-1.63,7.66-6.09l.94-2.5L0,430.69H2.66L14,461.64h.09l11.36-30.95h2.66L14.3,467.45c-2,5.39-4.49,7.82-9.75,7.82C4,475.27,3.46,475.24,3.05,475.21Z"/><path class="cls-4" d="M30.65,447.37v-.06c0-10.56,6-17.16,14.85-17.16s14.89,6.57,14.89,17.16v.06c0,10.62-6,17.22-14.89,17.22S30.65,458,30.65,447.37Zm27.23,0v-.06c0-9.24-5-14.92-12.38-14.92s-12.34,5.71-12.34,14.92v.06c0,9.24,4.93,14.95,12.34,15S57.88,456.61,57.88,447.37Z"/><path class="cls-4" d="M66.76,451.67v-21h2.47v20.69c0,7.15,3.82,10.94,10.17,10.94,6.57,0,11-4.78,11-11.71V430.69h2.5v33.36H90.4v-6.93h-.1c-1.54,4.27-5.67,7.44-11.48,7.44C71.31,464.56,66.76,459.82,66.76,451.67Z"/><path class="cls-4" d="M101.13,430.69h2.51v6.45h.06c1.32-4.4,4.36-7,8.79-7a8.93,8.93,0,0,1,3.11.54v2.5a8,8,0,0,0-3.46-.67c-5.26,0-8.5,4.43-8.5,10.78v20.75h-2.51Z"/><path class="cls-4" d="M133.44,454.71l0-.28h2.47l.07.28c.64,4.53,4.61,7.7,10.26,7.7s9.65-2.85,9.65-7v0c0-3.56-2.08-5.39-7.44-6.64l-4.65-1.09c-6.35-1.48-9.27-4.07-9.27-8.44v0c0-5.29,4.75-9,11.36-9,6.83,0,11.29,3.94,12,9.88l0,.28h-2.4l0-.22c-.65-4.68-4.24-7.76-9.56-7.76s-8.86,2.85-8.86,6.83v0c0,3.18,2.15,5,7.51,6.29l4.65,1.09c6.54,1.54,9.24,4.07,9.24,8.69v0c0,5.49-5.07,9.3-12.16,9.3S134.09,460.52,133.44,454.71Z"/><path class="cls-4" d="M163.1,447.4v0c0-10.62,5.87-17.22,14.53-17.22s14.4,6.48,14.4,16.48v1.16H165.61c.12,9.36,5,14.56,12.41,14.56,5.8,0,9.78-3,11-7.6l.1-.26h2.5l-.07.29c-1.31,6-6.44,9.81-13.56,9.81C168.94,464.59,163.1,458.08,163.1,447.4Zm2.51-1.7h23.95c-.32-8.27-5.16-13.31-12-13.31S165.93,437.52,165.61,445.7Z"/><path class="cls-4" d="M196.9,447.37v0c0-10.52,5.81-17.19,14.76-17.19,7.05,0,12.22,4.39,13.24,10.16l.07.32H222.5l-.07-.28c-1.06-4.65-5.16-8-10.77-8-7.48,0-12.26,5.81-12.26,14.95v0c0,9.27,4.85,15,12.26,15,5.51,0,9.65-3.21,10.74-8l.06-.28h2.47l0,.28c-1.12,6-6.28,10.2-13.24,10.2C202.64,464.59,196.9,457.92,196.9,447.37Z"/><path class="cls-4" d="M229.64,447.37v-.06c0-10.56,6-17.16,14.85-17.16s14.88,6.57,14.88,17.16v.06c0,10.62-6,17.22-14.88,17.22S229.64,458,229.64,447.37Zm27.23,0v-.06c0-9.24-5-14.92-12.38-14.92s-12.35,5.71-12.35,14.92v.06c0,9.24,4.94,14.95,12.35,15S256.87,456.61,256.87,447.37Z"/><path class="cls-4" d="M265.94,430.69h2.5v6.93h.06c1.54-4.27,5.71-7.44,11.52-7.44,7.5,0,12.06,4.75,12.06,12.89v21h-2.5V443.36c0-7.15-3.79-10.94-10.14-10.94-6.57,0-11,4.78-11,11.71v19.92h-2.5Z"/><path class="cls-4" d="M298.45,447.34v0c0-10.3,5.78-17.16,14-17.16a12.61,12.61,0,0,1,12.41,9.36h.1V417.77h2.47v46.28H325v-8.66h-.16a12.69,12.69,0,0,1-12.35,9.2C304.19,464.59,298.45,457.67,298.45,447.34Zm26.53.06v0c0-8.82-5.07-15-12.09-15s-11.93,6-11.93,14.92v0c0,9,4.81,15,12,15S325,456.19,325,447.4Z"/><path class="cls-4" d="M350.55,417.77H353v20h.1c1.54-4.46,5.77-7.6,11.55-7.6,7.44,0,12.15,4.94,12.15,13.24v20.63h-2.47V443.71c0-7.34-4-11.29-10.32-11.29-6.58,0-11,4.82-11,11.74v19.89h-2.47Z"/><path class="cls-4" d="M383.2,447.37v-.06c0-10.56,6-17.16,14.85-17.16s14.88,6.57,14.88,17.16v.06c0,10.62-6,17.22-14.88,17.22S383.2,458,383.2,447.37Zm27.23,0v-.06c0-9.24-5-14.92-12.38-14.92s-12.35,5.71-12.35,14.92v.06c0,9.24,4.94,14.95,12.35,15S410.43,456.61,410.43,447.37Z"/><path class="cls-4" d="M419.5,430.69H422v6.9h.06a10.31,10.31,0,0,1,19.92.51h.1a10.69,10.69,0,0,1,10.55-7.92c6.44,0,10.71,4.42,10.71,11.35v22.52h-2.5V442.11c0-6-3.3-9.69-8.76-9.69s-9.43,4.46-9.43,10.88v20.75h-2.47V442c0-5.8-3.62-9.59-8.72-9.59-5.58,0-9.46,4.62-9.46,11.71v19.92h-2.5Z"/><path class="cls-4" d="M469.68,447.4v0c0-10.62,5.87-17.22,14.53-17.22s14.41,6.48,14.41,16.48v1.16H472.19c.12,9.36,5,14.56,12.41,14.56,5.8,0,9.78-3,11-7.6l.1-.26h2.5l-.07.29c-1.31,6-6.44,9.81-13.56,9.81C475.52,464.59,469.68,458.08,469.68,447.4Zm2.51-1.7h24c-.32-8.27-5.17-13.31-12-13.31S472.51,437.52,472.19,445.7Z"/></g></g><g id="COSMiC" class="cls-5"><g class="cls-5"><path class="cls-6" d="M75,294.64v-.05c0-20.39,11.73-32.3,30.4-32.3,16.32,0,27.63,10.48,28.19,24.46v.44H118.33l-.08-.65c-1-6.5-5.55-11.09-12.82-11.09-8.71,0-14.21,7.15-14.21,19.1v0c0,12.08,5.55,19.27,14.25,19.27,6.89,0,11.78-4.28,12.86-11.26l.09-.47H133.7l0,.47c-.56,14-12,24.43-28.23,24.43C86.68,327,75,315,75,294.64Z"/><path class="cls-6" d="M139.42,294.68v-.09c0-19.87,12-32.3,30.83-32.3s30.88,12.43,30.88,32.3v.09c0,19.92-11.82,32.35-30.88,32.35S139.42,314.6,139.42,294.68Zm45.56,0v-.09c0-11.82-5.76-19.14-14.73-19.14s-14.63,7.28-14.63,19.14v.09c0,11.86,5.71,19.18,14.63,19.18C179.35,313.86,185,306.41,185,294.68Z"/><path class="cls-6" d="M206.89,308.19l0-.78h14.77l.09.48c.78,4,5.45,6.67,11.56,6.67,6.32,0,10.22-2.69,10.22-6.59v0c0-3.55-2.77-5.2-10.09-6.63L227,300.09c-12.38-2.29-18.92-8.4-18.92-18v0c0-12,10.43-19.79,24.77-19.79,15.67,0,24.55,7.36,25.11,18.71l.05.9H243.22l0-.47c-.48-4.12-4.51-6.67-10.22-6.67s-9.14,2.64-9.14,6.24v0c0,3.38,2.94,5.15,9.66,6.41l6.41,1.21c13.25,2.55,19.4,7.92,19.4,17.93v0c0,12.47-9.79,20.4-26.33,20.4C217.41,327,207.58,320.14,206.89,308.19Z"/><path class="cls-6" d="M266.6,263.41H285l15.67,40.84h.26l15.68-40.84h18.36V325.9H321V286.84h-.34L305.32,325.9h-9.1l-15.28-39.06h-.35V325.9h-14Z"/><path class="cls-6" d="M343.3,266.1a7.84,7.84,0,1,1,7.83,7.58A7.66,7.66,0,0,1,343.3,266.1Zm.17,12.64H358.8V325.9H343.47Z"/><path class="cls-6" d="M365.6,294.64v-.05c0-20.39,11.73-32.3,30.4-32.3,16.32,0,27.62,10.48,28.19,24.46v.44H408.9l-.08-.65c-1-6.5-5.55-11.09-12.82-11.09-8.71,0-14.21,7.15-14.21,19.1v0c0,12.08,5.55,19.27,14.25,19.27,6.89,0,11.78-4.28,12.86-11.26l.09-.47h15.29l0,.47c-.56,14-12,24.43-28.23,24.43C377.25,327,365.6,315,365.6,294.64Z"/></g></g><g id="LOUNGE" class="cls-5"><g class="cls-5"><path class="cls-7" d="M74.57,344.44H90.46v49.71h25.85v12.77H74.57Z"/><path class="cls-7" d="M119.26,375.7v-.08c0-19.88,12-32.31,30.83-32.31S181,355.74,181,375.62v.08c0,19.92-11.82,32.35-30.88,32.35S119.26,395.62,119.26,375.7Zm45.56,0v-.08c0-11.83-5.76-19.14-14.73-19.14s-14.63,7.27-14.63,19.14v.08c0,11.87,5.71,19.19,14.63,19.19C159.19,394.89,164.82,387.44,164.82,375.7Z"/><path class="cls-7" d="M188.72,384.75V344.44h15.89v38.8c0,7.27,3.9,11.65,11,11.65s11-4.38,11-11.65v-38.8h15.9v40.31c0,14-10.53,23.3-26.94,23.3S188.72,398.83,188.72,384.75Z"/><path class="cls-7" d="M252,344.44h13.46l25,36.07h.3V344.44h15.85v62.48H293.26l-25.12-36.46h-.3v36.46H252Z"/><path class="cls-7" d="M314.3,375.57v0c0-20.27,11.65-32.22,30.49-32.22,15.33,0,26.37,9,28,21.13l.09.52H357.17l-.13-.43c-1.64-5.07-6.1-8-12.21-8-9,0-14.33,6.75-14.33,18.88v0c0,12.38,5.89,19.49,15,19.49,7.19,0,12.13-3.9,12.65-10.18l0-.78H345.7V372.67h27.84v7.84c0,17.1-10.57,27.54-28.36,27.54C325.91,408.05,314.3,396.14,314.3,375.57Z"/><path class="cls-7" d="M381.42,344.44h42.83v12.77H397.32v12.34h25.33V381.5H397.32v12.65h26.93v12.77H381.42Z"/></g></g></g></g></svg>