<svg xmlns="http://www.w3.org/2000/svg" viewBox="0 0 229.7 227.41"><defs><style>.cls-1{opacity:0.25;}.cls-2,.cls-3{fill:#f6f7fa;}.cls-3{opacity:0.8;}</style></defs><g id="Layer_2" data-name="Layer 2"><g id="Layer_1-2" data-name="Layer 1"><g id="Group_55" data-name="Group 55" class="cls-1"><path id="Path_1" data-name="Path 1" class="cls-2" d="M4.23,75.47c-1.65,4.19-20.3,52.67,36.56,90.79,65.62,43.12,150.29,93.11,172.48,34.37-11.88,12.18-20.33,14.24-37.5,11.75-17.75-1.84-14.14,11.29-32.78,2.14S109.87,198.78,99,190c-28.65-20.73-1.75-33-44.81-60.45C35,117,28,105.29,28,105.29,22,120.05-3.13,116.36,6.35,79.1Z"/><path id="Path_2" data-name="Path 2" class="cls-2" d="M4.89,71A53.75,53.75,0,0,1,8.22,76.3c7.49-20.43,34.49-11.36,21.57,26.38,5.38,8.24,21.64,22.17,34.83,29.86,37.24,24.72,6.78,40.4,57,66,45.24,25.59,22.16,4,60.14,10.41a25,25,0,0,0,5.67.35c15.54-.93,27.82-14.4,27.82-14.4l.75-4.21s-39.81,37-104.52-16.94C63.94,134.46,81.38,84,49.51,62,26,45.75,91.65-7.92,164.71,22.7,110.63-25,21.79,7.85,4.89,71Z"/><path id="Path_3" data-name="Path 3" class="cls-3" d="M76.06,86.57c-11.8-32.52-31.17-24.73-25.22-38.4,1.75-4,6.62-7.43,10-10.19C81.33,21.47,124.74,9.56,164.35,26.64a37.19,37.19,0,0,1,5.39,2.88c40.91,26.26,76.68,78.38,51.67,148.5A27.53,27.53,0,0,1,212,190.85a21.84,21.84,0,0,1-7.56,3.58C158.67,206.32,100,170.76,87.21,123.26c-1-4.64-2.24-9.24-3.7-13.77C81.07,102,77.6,90.83,76.06,86.57Z"/><ellipse id="Ellipse_1" data-name="Ellipse 1" class="cls-2" cx="19.04" cy="79.13" rx="3.11" ry="1.52" transform="translate(-62.06 86.02) rotate(-81.33)"/><g id="Group_3" data-name="Group 3"><g id="Group_2" data-name="Group 2"><path id="Path_4" data-name="Path 4" class="cls-2" d="M21.06,70.24c5.24.79,8.16,10.11,6.53,20.82S20.39,109.78,15.15,109c-2.47-.37-4.42-2.64-5.63-6h0c-1.35-8.88,1.77-14.44,8.63-16.47C26,83.51,23.5,66.33,14.21,73.92,16.31,71.29,18.72,69.88,21.06,70.24ZM17.15,97.83c.26-1.7-.2-3.18-1-3.3s-1.72,1.14-2,2.84.21,3.18,1,3.31,1.72-1.15,2-2.85Z"/></g></g></g></g></g></svg>