<svg xmlns="http://www.w3.org/2000/svg" viewBox="0 0 242.8 240.38"><defs><style>.cls-1{opacity:0.85;}.cls-2,.cls-3{fill:#f6f7fa;}.cls-3{isolation:isolate;opacity:0.78;}</style></defs><g id="Layer_2" data-name="Layer 2"><g id="Layer_1-2" data-name="Layer 1"><g id="Group_55" data-name="Group 55" class="cls-1"><path id="Path_1" data-name="Path 1" class="cls-2" d="M4.47,79.77c-1.75,4.43-21.46,55.67,38.65,96,69.35,45.57,158.86,98.41,182.31,36.32-12.55,12.88-21.49,15.06-39.64,12.43-18.77-2-14.95,11.93-34.65,2.26s-35-16.64-46.53-25.93c-30.28-21.91-1.84-34.92-47.37-63.9C37,123.63,29.57,111.29,29.57,111.29,23.25,126.89-3.31,123,6.72,83.61Z"/><path id="Path_2" data-name="Path 2" class="cls-2" d="M5.17,75a54.91,54.91,0,0,1,3.51,5.61c7.93-21.6,36.46-12,22.8,27.88,5.7,8.71,22.89,23.44,36.82,31.57,39.36,26.13,7.17,42.7,60.28,69.78,47.82,27.05,23.43,4.26,63.57,11a26.22,26.22,0,0,0,6,.37c16.42-1,29.4-15.22,29.4-15.22l.79-4.45s-42.08,39.08-110.47-17.9C67.58,142.12,86,88.78,52.33,65.54,27.46,48.35,96.88-8.37,174.1,24,116.93-26.39,23,8.29,5.17,75Z"/><path id="Path_3" data-name="Path 3" class="cls-3" d="M80.39,91.51C67.92,57.13,47.45,65.37,53.74,50.92c1.85-4.25,7-7.86,10.6-10.77,21.63-17.45,67.51-30,109.38-12a39.31,39.31,0,0,1,5.69,3c43.25,27.76,81.06,82.85,54.62,157a29.09,29.09,0,0,1-9.95,13.56,23,23,0,0,1-8,3.78c-48.37,12.57-110.44-25-123.91-75.22-1.11-4.9-2.36-9.77-3.91-14.56C85.69,107.8,82,96,80.39,91.51Z"/><ellipse id="Ellipse_1" data-name="Ellipse 1" class="cls-2" cx="20.13" cy="83.64" rx="3.29" ry="1.61" transform="translate(-65.59 90.92) rotate(-81.33)"/><g id="Group_3" data-name="Group 3"><g id="Group_2" data-name="Group 2"><path id="Path_4" data-name="Path 4" class="cls-2" d="M22.26,74.24c5.54.84,8.63,10.69,6.9,22S21.55,116,16,115.2c-2.6-.4-4.67-2.8-5.94-6.4h0c-1.44-9.39,1.86-15.27,9.11-17.41,8.34-3.12,5.66-21.27-4.16-13.25C17.24,75.35,19.78,73.86,22.26,74.24Zm-4.13,29.17c.27-1.8-.22-3.36-1.09-3.5s-1.82,1.22-2.09,3,.21,3.36,1.09,3.5,1.82-1.21,2.09-3Z"/></g></g></g></g></g></svg>